<svg xmlns="http://www.w3.org/2000/svg" version="1.1" xmlns:xlink="http://www.w3.org/1999/xlink" xmlns:svgjs="http://svgjs.dev/svgjs" width="1000" height="1000" viewBox="0 0 1000 1000"><rect width="1000" height="1000" fill="#ff4136"></rect><g transform="matrix(0.7,0,0,0.7,149.57575757575756,417.6969520443697)"><svg viewBox="0 0 396 93" data-background-color="#ff4136" preserveAspectRatio="xMidYMid meet" height="234" width="1000" xmlns="http://www.w3.org/2000/svg" xmlns:xlink="http://www.w3.org/1999/xlink"><g id="tight-bounds" transform="matrix(1,0,0,1,0.2400000000000091,0.22883675136517923)"><svg viewBox="0 0 395.52 92.54232649726967" height="92.54232649726967" width="395.52"><g><svg viewBox="0 0 395.52 92.54232649726967" height="92.54232649726967" width="395.52"><g><svg viewBox="0 0 395.52 92.54232649726967" height="92.54232649726967" width="395.52"><g><svg viewBox="0 0 395.52 92.54232649726967" height="92.54232649726967" width="395.52"><g><rect width="395.52" height="75.22949326160054" fill="none" stroke-width="9.018103199999999" stroke="#000000" data-fill-palette-color="none" data-stroke-palette-color="tertiary"></rect><rect width="395.52" height="17.31283323566913" y="75.22949326160054" fill="#000000" data-fill-palette-color="tertiary"></rect></g><g><svg viewBox="0 0 395.52 75.22949326160054" height="75.22949326160054" width="395.52"><g transform="matrix(1,0,0,1,23.607599999999998,23.607599999999998)"><svg width="348.3048" viewBox="0 -29.899999618530273 371.7300109863281 29.899999618530273" height="28.01429326160054" data-palette-color="#000000"><path d="M7.3 0L0 0 14.65-29.4 24.5-29.4 39.1 0 31.4 0 28.45-6.35 10.55-6.35 7.3 0ZM19.25-24.9L12.35-11.25 26.6-11.25 19.75-24.9 19.25-24.9ZM53.75 0L47.15 0 47.1-24.65 34.1-24.65 34.1-29.45 66.8-29.45 66.8-24.65 53.75-24.65 53.75 0ZM88.45 0L81.85 0 81.8-24.65 68.8-24.65 68.8-29.45 101.5-29.45 101.5-24.65 88.45-24.65 88.45 0ZM133.79 0L106.49 0 106.49-29.4 137.59-29.4 137.59-24.6 113.09-24.6 113.09-17.7 131.79-17.7 131.79-12.75 113.09-12.75 113.09-4.8 137.79-4.8 139.79-0.55Q139.79-0.35 138.44-0.18 137.09 0 133.79 0L133.79 0ZM151.89 0L145.29 0 145.29-25.4 144.79-29.4 151.99-29.4 168.99-11.6 170.94-8.9 171.49-8.9 171.49-29.4 178.09-29.4 178.09 0 171.74 0 154.34-18.1 152.39-20.45 151.89-20.45 151.89 0ZM209.29 0L186.59 0 186.59-25.4 186.09-29.4 209.29-29.4Q213.34-29.4 215.51-28.4 217.69-27.4 218.54-25.43 219.39-23.45 219.39-20.5L219.39-20.5 219.39-8.95Q219.39-5.95 218.56-3.98 217.74-2 215.56-1 213.39 0 209.29 0L209.29 0ZM193.19-24.6L193.19-4.8 208.89-4.8Q212.74-4.8 212.79-8.35L212.79-8.35 212.79-21.1Q212.79-22.55 211.94-23.58 211.09-24.6 208.89-24.6L208.89-24.6 193.19-24.6ZM233.49 0L226.89 0 226.89-25.4 226.39-29.4 233.59-29.4 250.59-11.6 252.54-8.9 253.09-8.9 253.09-29.4 259.69-29.4 259.69 0 253.34 0 235.94-18.1 233.99-20.45 233.49-20.45 233.49 0ZM290.93 0L276.33 0Q272.83 0 270.83-1 268.83-2 268.01-4 267.18-6 267.18-8.95L267.18-8.95 267.18-20.5Q267.18-23.4 267.98-25.38 268.78-27.35 270.78-28.38 272.78-29.4 276.33-29.4L276.33-29.4 290.93-29.4Q294.43-29.4 296.41-28.38 298.38-27.35 299.21-25.38 300.03-23.4 300.03-20.5L300.03-20.5 300.03-8.95Q300.03-4.55 298.08-2.27 296.13 0 290.93 0L290.93 0ZM277.78-4.8L277.78-4.8 289.53-4.8Q291.38-4.8 292.41-5.75 293.43-6.7 293.43-8.35L293.43-8.35 293.43-21.1Q293.43-22.55 292.38-23.58 291.33-24.6 289.53-24.6L289.53-24.6 277.78-24.6Q275.98-24.6 274.88-23.65 273.78-22.7 273.78-21.1L273.78-21.1 273.78-8.35Q273.78-6.65 274.86-5.73 275.93-4.8 277.78-4.8ZM323.28 0L314.78 0 304.03-29.35 311.03-29.35 318.08-10.15 319.23-5.3 319.73-5.3 320.38-8.7 327.03-29.35 335.53-29.35 342.48-8.7 343.38-5.3 343.88-5.3 345.03-10.15 351.58-29.35 358.58-29.35 358.08-26.35 347.78 0 339.28 0 332.48-19.65 331.48-22.85 330.98-22.85 330.03-19.65 323.28 0ZM369.23-10.5L365.63-10.5Q365.23-12.85 364.78-15.48 364.33-18.1 363.95-20.53 363.58-22.95 363.33-24.7 363.08-26.45 363.08-26.95L363.08-26.95Q363.08-28.4 363.35-29.15 363.63-29.9 365.08-29.9L365.08-29.9 369.73-29.9Q371.08-29.9 371.4-29.18 371.73-28.45 371.73-26.95L371.73-26.95Q371.73-26.4 371.5-24.68 371.28-22.95 370.9-20.53 370.53-18.1 370.08-15.48 369.63-12.85 369.23-10.5L369.23-10.5ZM367.38 0L367.38 0Q365.53 0 364.68-0.75 363.83-1.5 363.83-3.25L363.83-3.25Q363.83-5.05 364.65-5.78 365.48-6.5 367.38-6.5L367.38-6.5Q369.28-6.5 370.13-5.78 370.98-5.05 370.98-3.25L370.98-3.25Q370.98-1.55 370.13-0.78 369.28 0 367.38 0Z" opacity="1" transform="matrix(1,0,0,1,0,0)" fill="#000000" class="undefined-text-0" data-fill-palette-color="primary" id="text-0"></path></svg></g></svg></g></svg></g></svg></g></svg></g><defs></defs></svg><rect width="395.52" height="92.54232649726967" fill="none" stroke="none" visibility="hidden"></rect></g></svg></g></svg>