<svg xmlns="http://www.w3.org/2000/svg" version="1.1" xmlns:xlink="http://www.w3.org/1999/xlink" xmlns:svgjs="http://svgjs.dev/svgjs" width="1000" height="1000" viewBox="0 0 1000 1000"><rect width="1000" height="1000" fill="#000000"></rect><g transform="matrix(0.7,0,0,0.7,149.57575757575756,282.1265587044535)"><svg viewBox="0 0 396 247" data-background-color="#0718c4" preserveAspectRatio="xMidYMid meet" height="623" width="1000" xmlns="http://www.w3.org/2000/svg" xmlns:xlink="http://www.w3.org/1999/xlink"><g id="tight-bounds" transform="matrix(1,0,0,1,0.2400000000000091,-0.09999999999999432)"><svg viewBox="0 0 395.52 247.2" height="247.2" width="395.52"><g><svg viewBox="0 0 395.52 247.2" height="247.2" width="395.52"><g transform="matrix(1,0,0,1,0,75.86159199170507)"><svg viewBox="0 0 395.52 95.47681601658985" height="95.47681601658985" width="395.52"><g><svg viewBox="0 0 395.52 95.47681601658985" height="95.47681601658985" width="395.52"><g><svg viewBox="0 0 395.52 95.47681601658985" height="95.47681601658985" width="395.52"><g><svg viewBox="0 0 395.52 95.47681601658985" height="95.47681601658985" width="395.52"><g><rect width="395.52" height="77.04314562211981" fill="none" stroke-width="9.018103199999999" stroke="#7fdbff" data-fill-palette-color="none" data-stroke-palette-color="tertiary"></rect><rect width="395.52" height="18.433670394470045" y="77.04314562211981" fill="#7fdbff" data-fill-palette-color="tertiary"></rect></g><g><svg viewBox="0 0 395.52 77.04314562211981" height="77.04314562211981" width="395.52"><g transform="matrix(1,0,0,1,23.607599999999998,23.607599999999998)"><svg width="348.3048" viewBox="0 -29.45 396.58 33.45" height="29.827945622119817" data-palette-color="#8dbdff"><g class="undefined-text-0" data-fill-palette-color="primary" id="text-0"><path d="M7.3 0L0 0 14.65-29.4 24.5-29.4 39.1 0 31.4 0 28.45-6.35 10.55-6.35 7.3 0ZM19.25-24.9L12.35-11.25 26.6-11.25 19.75-24.9 19.25-24.9ZM59.75 0L53.15 0 53.1-24.65 40.1-24.65 40.1-29.45 72.8-29.45 72.8-24.65 59.75-24.65 59.75 0ZM94.45 0L87.85 0 87.8-24.65 74.8-24.65 74.8-29.45 107.5-29.45 107.5-24.65 94.45-24.65 94.45 0ZM139.79 0L112.49 0 112.49-29.4 143.59-29.4 143.59-24.6 119.09-24.6 119.09-17.7 137.79-17.7 137.79-12.75 119.09-12.75 119.09-4.8 143.79-4.8 145.79-0.55Q145.79-0.35 144.44-0.18 143.09 0 139.79 0L139.79 0ZM157.89 0L151.29 0 151.29-25.4 150.79-29.4 157.99-29.4 174.99-11.6 176.94-8.9 177.49-8.9 177.49-29.4 184.09-29.4 184.09 0 177.74 0 160.34-18.1 158.39-20.45 157.89-20.45 157.89 0ZM215.29 0L192.59 0 192.59-25.4 192.09-29.4 215.29-29.4Q219.34-29.4 221.51-28.4 223.69-27.4 224.54-25.43 225.39-23.45 225.39-20.5L225.39-20.5 225.39-8.95Q225.39-5.95 224.56-3.98 223.74-2 221.56-1 219.39 0 215.29 0L215.29 0ZM199.19-24.6L199.19-4.8 214.89-4.8Q218.74-4.8 218.79-8.35L218.79-8.35 218.79-21.1Q218.79-22.55 217.94-23.58 217.09-24.6 214.89-24.6L214.89-24.6 199.19-24.6ZM256.39 4L232.39 4 232.39 0 256.39 0 256.39 4ZM271.48 0L264.88 0 264.88-25.4 264.38-29.4 271.58-29.4 288.58-11.6 290.53-8.9 291.08-8.9 291.08-29.4 297.68-29.4 297.68 0 291.33 0 273.93-18.1 271.98-20.45 271.48-20.45 271.48 0ZM328.93 0L314.33 0Q310.83 0 308.83-1 306.83-2 306.01-4 305.18-6 305.18-8.95L305.18-8.95 305.18-20.5Q305.18-23.4 305.98-25.38 306.78-27.35 308.78-28.38 310.78-29.4 314.33-29.4L314.33-29.4 328.93-29.4Q332.43-29.4 334.41-28.38 336.38-27.35 337.21-25.38 338.03-23.4 338.03-20.5L338.03-20.5 338.03-8.95Q338.03-4.55 336.08-2.27 334.13 0 328.93 0L328.93 0ZM315.78-4.8L315.78-4.8 327.53-4.8Q329.38-4.8 330.41-5.75 331.43-6.7 331.43-8.35L331.43-8.35 331.43-21.1Q331.43-22.55 330.38-23.58 329.33-24.6 327.53-24.6L327.53-24.6 315.78-24.6Q313.98-24.6 312.88-23.65 311.78-22.7 311.78-21.1L311.78-21.1 311.78-8.35Q311.78-6.65 312.86-5.73 313.93-4.8 315.78-4.8ZM361.28 0L352.78 0 342.03-29.35 349.03-29.35 356.08-10.15 357.23-5.3 357.73-5.3 358.38-8.7 365.03-29.35 373.53-29.35 380.48-8.7 381.38-5.3 381.88-5.3 383.03-10.15 389.58-29.35 396.58-29.35 396.08-26.35 385.78 0 377.28 0 370.48-19.65 369.48-22.85 368.98-22.85 368.03-19.65 361.28 0Z" fill="#ffffff" data-fill-palette-color="primary"></path></g></svg></g></svg></g></svg></g></svg></g></svg></g></svg></g></svg></g><defs></defs></svg><rect width="395.52" height="247.2" fill="none" stroke="none" visibility="hidden"></rect></g></svg></g></svg>