<svg xmlns="http://www.w3.org/2000/svg" version="1.1" xmlns:xlink="http://www.w3.org/1999/xlink" xmlns:svgjs="http://svgjs.dev/svgjs" width="1000" height="623" viewBox="0 0 1000 623"><g transform="matrix(1,0,0,1,-0.6060606060606233,0.2522267206477409)"><svg viewBox="0 0 396 247" data-background-color="#f0a94f" preserveAspectRatio="xMidYMid meet" height="623" width="1000" xmlns="http://www.w3.org/2000/svg" xmlns:xlink="http://www.w3.org/1999/xlink"><g id="tight-bounds" transform="matrix(1,0,0,1,0.2400000000000091,-0.09999999999999432)"><svg viewBox="0 0 395.52 247.2" height="247.2" width="395.52"><g><svg viewBox="0 0 395.52 247.2" height="247.2" width="395.52"><g transform="matrix(1,0,0,1,0,75.86159199170507)"><svg viewBox="0 0 395.52 95.47681601658985" height="95.47681601658985" width="395.52"><g><svg viewBox="0 0 395.52 95.47681601658985" height="95.47681601658985" width="395.52"><g><svg viewBox="0 0 395.52 95.47681601658985" height="95.47681601658985" width="395.52"><g><svg viewBox="0 0 395.52 95.47681601658985" height="95.47681601658985" width="395.52"><g><rect width="395.52" height="77.04314562211981" fill="none" stroke-width="9.018103199999999" stroke="#093644" data-fill-palette-color="none" data-stroke-palette-color="tertiary"></rect><rect width="395.52" height="18.433670394470045" y="77.04314562211981" fill="#093644" data-fill-palette-color="tertiary"></rect></g><g><svg viewBox="0 0 395.52 77.04314562211981" height="77.04314562211981" width="395.52"><g transform="matrix(1,0,0,1,23.607599999999998,23.607599999999998)"><svg width="348.3048" viewBox="0 -29.45 390.58 33.45" height="29.827945622119817" data-palette-color="#093644"><path d="M7.3 0L0 0 14.65-29.4 24.5-29.4 39.1 0 31.4 0 28.45-6.35 10.55-6.35 7.3 0ZM19.25-24.9L12.35-11.25 26.6-11.25 19.75-24.9 19.25-24.9ZM53.75 0L47.15 0 47.1-24.65 34.1-24.65 34.1-29.45 66.8-29.45 66.8-24.65 53.75-24.65 53.75 0ZM88.45 0L81.85 0 81.8-24.65 68.8-24.65 68.8-29.45 101.5-29.45 101.5-24.65 88.45-24.65 88.45 0ZM133.79 0L106.49 0 106.49-29.4 137.59-29.4 137.59-24.6 113.09-24.6 113.09-17.7 131.79-17.7 131.79-12.75 113.09-12.75 113.09-4.8 137.79-4.8 139.79-0.55Q139.79-0.35 138.44-0.18 137.09 0 133.79 0L133.79 0ZM151.89 0L145.29 0 145.29-25.4 144.79-29.4 151.99-29.4 168.99-11.6 170.94-8.9 171.49-8.9 171.49-29.4 178.09-29.4 178.09 0 171.74 0 154.34-18.1 152.39-20.45 151.89-20.45 151.89 0ZM209.29 0L186.59 0 186.59-25.4 186.09-29.4 209.29-29.4Q213.34-29.4 215.51-28.4 217.69-27.4 218.54-25.43 219.39-23.45 219.39-20.5L219.39-20.5 219.39-8.95Q219.39-5.95 218.56-3.98 217.74-2 215.56-1 213.39 0 209.29 0L209.29 0ZM193.19-24.6L193.19-4.8 208.89-4.8Q212.74-4.8 212.79-8.35L212.79-8.35 212.79-21.1Q212.79-22.55 211.94-23.58 211.09-24.6 208.89-24.6L208.89-24.6 193.19-24.6ZM250.39 4L226.39 4 226.39 0 250.39 0 250.39 4ZM265.48 0L258.88 0 258.88-25.4 258.38-29.4 265.58-29.4 282.58-11.6 284.53-8.9 285.08-8.9 285.08-29.4 291.68-29.4 291.68 0 285.33 0 267.93-18.1 265.98-20.45 265.48-20.45 265.48 0ZM322.93 0L308.33 0Q304.83 0 302.83-1 300.83-2 300.01-4 299.18-6 299.18-8.95L299.18-8.95 299.18-20.5Q299.18-23.4 299.98-25.38 300.78-27.35 302.78-28.38 304.78-29.4 308.33-29.4L308.33-29.4 322.93-29.4Q326.43-29.4 328.41-28.38 330.38-27.35 331.21-25.38 332.03-23.4 332.03-20.5L332.03-20.5 332.03-8.95Q332.03-4.55 330.08-2.27 328.13 0 322.93 0L322.93 0ZM309.78-4.8L309.78-4.8 321.53-4.8Q323.38-4.8 324.41-5.75 325.43-6.7 325.43-8.35L325.43-8.35 325.43-21.1Q325.43-22.55 324.38-23.58 323.33-24.6 321.53-24.6L321.53-24.6 309.78-24.6Q307.98-24.6 306.88-23.65 305.78-22.7 305.78-21.1L305.78-21.1 305.78-8.35Q305.78-6.65 306.86-5.73 307.93-4.8 309.78-4.8ZM355.28 0L346.78 0 336.03-29.35 343.03-29.35 350.08-10.15 351.23-5.3 351.73-5.3 352.38-8.7 359.03-29.35 367.53-29.35 374.48-8.7 375.38-5.3 375.88-5.3 377.03-10.15 383.58-29.35 390.58-29.35 390.08-26.35 379.78 0 371.28 0 364.48-19.65 363.48-22.85 362.98-22.85 362.03-19.65 355.28 0Z" opacity="1" transform="matrix(1,0,0,1,0,0)" fill="#093644" class="undefined-text-0" data-fill-palette-color="primary" id="text-0"></path></svg></g></svg></g></svg></g></svg></g><g></g></svg></g></svg></g></svg></g><defs></defs></svg><rect width="395.52" height="247.2" fill="none" stroke="none" visibility="hidden"></rect></g></svg></g></svg>