<svg xmlns="http://www.w3.org/2000/svg" version="1.1" xmlns:xlink="http://www.w3.org/1999/xlink" xmlns:svgjs="http://svgjs.dev/svgjs" width="1000" height="1000" viewBox="0 0 1000 1000"><rect width="1000" height="1000" fill="#000000"></rect><g transform="matrix(0.7,0,0,0.7,149.57575757575756,282.1265587044535)"><svg viewBox="0 0 396 247" data-background-color="#ffdc00" preserveAspectRatio="xMidYMid meet" height="623" width="1000" xmlns="http://www.w3.org/2000/svg" xmlns:xlink="http://www.w3.org/1999/xlink"><g id="tight-bounds" transform="matrix(1,0,0,1,0.2400000000000091,-0.09999999999999432)"><svg viewBox="0 0 395.52 247.2" height="247.2" width="395.52"><g><svg viewBox="0 0 395.52 247.2" height="247.2" width="395.52"><g transform="matrix(1,0,0,1,0,67.53261222941177)"><svg viewBox="0 0 395.52 112.13477554117645" height="112.13477554117645" width="395.52"><g><svg viewBox="0 0 395.52 112.13477554117645" height="112.13477554117645" width="395.52"><g><svg viewBox="0 0 395.52 112.13477554117645" height="112.13477554117645" width="395.52"><g><svg viewBox="0 0 395.52 112.13477554117645" height="112.13477554117645" width="395.52"><g><rect width="395.52" height="87.33854705882352" fill="none" stroke-width="9.018103199999999" stroke="#000000" data-fill-palette-color="none" data-stroke-palette-color="tertiary"></rect><rect width="395.52" height="24.796228482352937" y="87.33854705882352" fill="#000000" data-fill-palette-color="tertiary"></rect></g><g><svg viewBox="0 0 395.52 87.33854705882352" height="87.33854705882352" width="395.52"><g transform="matrix(1,0,0,1,23.607599999999998,23.607599999999998)"><svg width="348.3048" viewBox="0.6000000238418579 -38.25 346.7799987792969 39.95000076293945" height="40.123347058823526" data-palette-color="#000000"><path d="M7.75 0L0.6 0 17.2-38.25 17.6-38.25 34.2 0 25.8 0 15.2-26.9 20.45-30.5 7.75 0ZM9.7-7.2L11.95-13.3 23-13.3 25.55-7.2 9.7-7.2ZM34.05-29.8L34.05-36.8 58.85-36.8 58.85-29.8 49.9-29.8 49.9 0 42.65 0 42.65-29.8 34.05-29.8ZM63.35-29.8L63.35-36.8 88.15-36.8 88.15-29.8 79.2-29.8 79.2 0 71.95 0 71.95-29.8 63.35-29.8ZM95.14 0L95.14-36.8 120.24-36.8 120.24-29.8 102.39-29.8 102.39-21.95 118.19-21.95 118.19-14.95 102.39-14.95 102.39-7 120.94-7 120.94 0 95.14 0ZM161.59 1.5L161.39 1.5 133.49-23.7 135.64-22.5 135.79 0 128.44 0 128.44-38.25 128.74-38.25 156.04-13.15 154.44-13.85 154.29-36.8 161.59-36.8 161.59 1.5ZM183.89 0L171.09 0 171.09-36.8 182.09-36.8Q187.64-36.8 191.54-35.15 195.44-33.5 197.81-30.75 200.19-28 201.29-24.6 202.39-21.2 202.39-17.75L202.39-17.75Q202.39-13.65 200.91-10.38 199.44-7.1 196.89-4.78 194.34-2.45 190.99-1.23 187.64 0 183.89 0L183.89 0ZM178.34-29.85L178.34-7 182.64-7Q185.39-7 187.64-7.73 189.89-8.45 191.51-9.85 193.14-11.25 194.01-13.38 194.89-15.5 194.89-18.25L194.89-18.25Q194.89-21.85 193.71-24.13 192.54-26.4 190.81-27.65 189.09-28.9 187.29-29.38 185.49-29.85 184.24-29.85L184.24-29.85 178.34-29.85ZM242.79 1.5L242.59 1.5 214.69-23.7 216.84-22.5 216.99 0 209.64 0 209.64-38.25 209.94-38.25 237.24-13.15 235.64-13.85 235.49-36.8 242.79-36.8 242.79 1.5ZM250.03-18.35L250.03-18.35Q250.03-22.15 251.48-25.55 252.93-28.95 255.51-31.58 258.08-34.2 261.48-35.7 264.88-37.2 268.78-37.2L268.78-37.2Q272.63-37.2 276.03-35.7 279.43-34.2 282.06-31.58 284.68-28.95 286.16-25.55 287.63-22.15 287.63-18.35L287.63-18.35Q287.63-14.45 286.16-11.05 284.68-7.65 282.06-5.08 279.43-2.5 276.03-1.05 272.63 0.4 268.78 0.4L268.78 0.4Q264.88 0.4 261.48-1.05 258.08-2.5 255.51-5.08 252.93-7.65 251.48-11.05 250.03-14.45 250.03-18.35ZM257.53-18.35L257.53-18.35Q257.53-15.9 258.41-13.78 259.28-11.65 260.86-10.03 262.43-8.4 264.51-7.5 266.58-6.6 269.03-6.6L269.03-6.6Q271.38-6.6 273.41-7.5 275.43-8.4 276.93-10.03 278.43-11.65 279.28-13.78 280.13-15.9 280.13-18.35L280.13-18.35Q280.13-20.85 279.26-23 278.38-25.15 276.86-26.78 275.33-28.4 273.28-29.3 271.23-30.2 268.83-30.2L268.83-30.2Q266.43-30.2 264.38-29.3 262.33-28.4 260.78-26.78 259.23-25.15 258.38-23 257.53-20.85 257.53-18.35ZM303.53 1.7L288.73-36.55 297.23-36.55 305.08-13.45 303.93-13.95 310.78-31 314.13-21.05 303.53 1.7ZM322.48 1.6L307.18-36.55 314.38-36.55 323.43-14.2 322.13-14.4 328.88-36.55 336.68-36.55 322.48 1.6ZM340.08-9.95L340.08-38.25 346.33-38.25 346.33-9.95 340.08-9.95ZM343.38 0.7L343.38 0.7Q341.58 0.7 340.43-0.28 339.28-1.25 339.28-2.85L339.28-2.85Q339.28-4.4 340.45-5.45 341.63-6.5 343.38-6.5L343.38-6.5Q345.13-6.5 346.25-5.45 347.38-4.4 347.38-2.85L347.38-2.85Q347.38-1.25 346.28-0.28 345.18 0.7 343.38 0.7Z" opacity="1" transform="matrix(1,0,0,1,0,0)" fill="#ffffff" class="undefined-text-0" data-fill-palette-color="primary" id="text-0"></path></svg></g></svg></g></svg></g></svg></g><g></g></svg></g></svg></g></svg></g><defs></defs></svg><rect width="395.52" height="247.2" fill="none" stroke="none" visibility="hidden"></rect></g></svg></g></svg>