<svg xmlns="http://www.w3.org/2000/svg" version="1.1" xmlns:xlink="http://www.w3.org/1999/xlink" xmlns:svgjs="http://svgjs.dev/svgjs" width="1000" height="1000" viewBox="0 0 1000 1000"><rect width="1000" height="1000" fill="#ffffff"></rect><g transform="matrix(0.7,0,0,0.7,149.57575757575756,282.1265587044535)"><svg viewBox="0 0 396 247" data-background-color="#0718c4" preserveAspectRatio="xMidYMid meet" height="623" width="1000" xmlns="http://www.w3.org/2000/svg" xmlns:xlink="http://www.w3.org/1999/xlink"><g id="tight-bounds" transform="matrix(1,0,0,1,0.2400000000000091,-0.09999999999999432)"><svg viewBox="0 0 395.52 247.2" height="247.2" width="395.52"><g><svg viewBox="0 0 395.52 247.2" height="247.2" width="395.52"><g transform="matrix(1,0,0,1,0,77.32883675136516)"><svg viewBox="0 0 395.52 92.54232649726967" height="92.54232649726967" width="395.52"><g><svg viewBox="0 0 395.52 92.54232649726967" height="92.54232649726967" width="395.52"><g><svg viewBox="0 0 395.52 92.54232649726967" height="92.54232649726967" width="395.52"><g><svg viewBox="0 0 395.52 92.54232649726967" height="92.54232649726967" width="395.52"><g><rect width="395.52" height="75.22949326160054" fill="none" stroke-width="9.018103199999999" stroke="#7fdbff" data-fill-palette-color="none" data-stroke-palette-color="tertiary"></rect><rect width="395.52" height="17.31283323566913" y="75.22949326160054" fill="#7fdbff" data-fill-palette-color="tertiary"></rect></g><g><svg viewBox="0 0 395.52 75.22949326160054" height="75.22949326160054" width="395.52"><g transform="matrix(1,0,0,1,23.607599999999998,23.607599999999998)"><svg width="348.3048" viewBox="0 -29.899999618530273 377.7300109863281 29.899999618530273" height="28.01429326160054" data-palette-color="#8dbdff"><g class="undefined-text-0" data-fill-palette-color="primary" id="text-0"><path d="M7.3 0L0 0 14.65-29.4 24.5-29.4 39.1 0 31.4 0 28.45-6.35 10.55-6.35 7.3 0ZM19.25-24.9L12.35-11.25 26.6-11.25 19.75-24.9 19.25-24.9ZM59.75 0L53.15 0 53.1-24.65 40.1-24.65 40.1-29.45 72.8-29.45 72.8-24.65 59.75-24.65 59.75 0ZM94.45 0L87.85 0 87.8-24.65 74.8-24.65 74.8-29.45 107.5-29.45 107.5-24.65 94.45-24.65 94.45 0ZM139.79 0L112.49 0 112.49-29.4 143.59-29.4 143.59-24.6 119.09-24.6 119.09-17.7 137.79-17.7 137.79-12.75 119.09-12.75 119.09-4.8 143.79-4.8 145.79-0.55Q145.79-0.35 144.44-0.18 143.09 0 139.79 0L139.79 0ZM157.89 0L151.29 0 151.29-25.4 150.79-29.4 157.99-29.4 174.99-11.6 176.94-8.9 177.49-8.9 177.49-29.4 184.09-29.4 184.09 0 177.74 0 160.34-18.1 158.39-20.45 157.89-20.45 157.89 0ZM215.29 0L192.59 0 192.59-25.4 192.09-29.4 215.29-29.4Q219.34-29.4 221.51-28.4 223.69-27.4 224.54-25.43 225.39-23.45 225.39-20.5L225.39-20.5 225.39-8.95Q225.39-5.95 224.56-3.98 223.74-2 221.56-1 219.39 0 215.29 0L215.29 0ZM199.19-24.6L199.19-4.8 214.89-4.8Q218.74-4.8 218.79-8.35L218.79-8.35 218.79-21.1Q218.79-22.55 217.94-23.58 217.09-24.6 214.89-24.6L214.89-24.6 199.19-24.6ZM239.49 0L232.89 0 232.89-25.4 232.39-29.4 239.59-29.4 256.59-11.6 258.54-8.9 259.09-8.9 259.09-29.4 265.69-29.4 265.69 0 259.34 0 241.94-18.1 239.99-20.45 239.49-20.45 239.49 0ZM296.93 0L282.33 0Q278.83 0 276.83-1 274.83-2 274.01-4 273.18-6 273.18-8.95L273.18-8.95 273.18-20.5Q273.18-23.4 273.98-25.38 274.78-27.35 276.78-28.38 278.78-29.4 282.33-29.4L282.33-29.4 296.93-29.4Q300.43-29.4 302.41-28.38 304.38-27.35 305.21-25.38 306.03-23.4 306.03-20.5L306.03-20.5 306.03-8.95Q306.03-4.55 304.08-2.27 302.13 0 296.93 0L296.93 0ZM283.78-4.8L283.78-4.8 295.53-4.8Q297.38-4.8 298.41-5.75 299.43-6.7 299.43-8.35L299.43-8.35 299.43-21.1Q299.43-22.55 298.38-23.58 297.33-24.6 295.53-24.6L295.53-24.6 283.78-24.6Q281.98-24.6 280.88-23.65 279.78-22.7 279.78-21.1L279.78-21.1 279.78-8.35Q279.78-6.65 280.86-5.73 281.93-4.8 283.78-4.8ZM329.28 0L320.78 0 310.03-29.35 317.03-29.35 324.08-10.15 325.23-5.3 325.73-5.3 326.38-8.7 333.03-29.35 341.53-29.35 348.48-8.7 349.38-5.3 349.88-5.3 351.03-10.15 357.58-29.35 364.58-29.35 364.08-26.35 353.78 0 345.28 0 338.48-19.65 337.48-22.85 336.98-22.85 336.03-19.65 329.28 0ZM375.23-10.5L371.63-10.5Q371.23-12.85 370.78-15.48 370.33-18.1 369.95-20.53 369.58-22.95 369.33-24.7 369.08-26.45 369.08-26.95L369.08-26.95Q369.08-28.4 369.35-29.15 369.63-29.9 371.08-29.9L371.08-29.9 375.73-29.9Q377.08-29.9 377.4-29.18 377.73-28.45 377.73-26.95L377.73-26.95Q377.73-26.4 377.5-24.68 377.28-22.95 376.9-20.53 376.53-18.1 376.08-15.48 375.63-12.85 375.23-10.5L375.23-10.5ZM373.38 0L373.38 0Q371.53 0 370.68-0.75 369.83-1.5 369.83-3.25L369.83-3.25Q369.83-5.05 370.65-5.78 371.48-6.5 373.38-6.5L373.38-6.5Q375.28-6.5 376.13-5.78 376.98-5.05 376.98-3.25L376.98-3.25Q376.98-1.55 376.13-0.78 375.28 0 373.38 0Z" fill="#000000" data-fill-palette-color="primary"></path></g></svg></g></svg></g></svg></g></svg></g></svg></g></svg></g></svg></g><defs></defs></svg><rect width="395.52" height="247.2" fill="none" stroke="none" visibility="hidden"></rect></g></svg></g></svg>